<svg width="512" height="512" viewBox="0 0 512 512" fill="none" xmlns="http://www.w3.org/2000/svg">
  <rect width="512" height="512" rx="120" fill="#050505"/>
  <g stroke="#d6d6d6" stroke-width="18" stroke-linecap="round" stroke-linejoin="round">
    <path d="M112 350V160L210 270L256 218L302 270L400 160V350"/>
    <path d="M112 160L178 292L112 350"/>
    <path d="M400 160L334 292L400 350"/>
    <path d="M178 292L256 218L334 292"/>
    <path d="M210 270L256 330L302 270"/>
  </g>
  <g fill="#f2f2f2" stroke="#8e8e8e" stroke-width="8">
    <circle cx="112" cy="160" r="30"/>
    <circle cx="400" cy="160" r="30"/>
    <circle cx="178" cy="292" r="28"/>
    <circle cx="334" cy="292" r="28"/>
    <circle cx="256" cy="218" r="30"/>
    <circle cx="256" cy="330" r="28"/>
    <circle cx="112" cy="350" r="30"/>
    <circle cx="400" cy="350" r="30"/>
  </g>
</svg>
